<?xml version="1.0" encoding="UTF-8" standalone="no"?>
<svg width="1200" height="400" viewBox="0 0 317.49999 105.83333" version="1.1" id="svg1" xmlns:inkscape="http://www.inkscape.org/namespaces/inkscape" xmlns:sodipodi="http://sodipodi.sourceforge.net/DTD/sodipodi-0.dtd" xmlns="http://www.w3.org/2000/svg" xmlns:svg="http://www.w3.org/2000/svg">
  <sodipodi:namedview id="namedview1" pagecolor="#292929" bordercolor="#000000" borderopacity="0.25" inkscape:showpageshadow="2" inkscape:pageopacity="0.0" inkscape:pagecheckerboard="false" inkscape:deskcolor="#3b3b3b" inkscape:document-units="px" inkscape:antialias-rendering="true" inkscape:export-bgcolor="#ffffff00">
    <inkscape:page x="0" y="0" width="317.5" height="105.83333" id="page2" margin="0" bleed="0"/>
  </sodipodi:namedview>
  <defs id="defs1">
    <inkscape:path-effect effect="fillet_chamfer" id="path-effect4" is_visible="true" lpeversion="1" nodesatellites_param="F,0,0,1,0,5.2916665,0,1 @ F,0,0,1,0,5.2916665,0,1 @ F,0,0,1,0,5.2916665,0,1 @ F,0,0,1,0,5.2916665,0,1" radius="20" unit="px" method="auto" mode="F" chamfer_steps="1" flexible="false" use_knot_distance="true" apply_no_radius="true" apply_with_radius="true" only_selected="false" hide_knots="false"/>
    <inkscape:path-effect effect="fillet_chamfer" id="path-effect3" is_visible="true" lpeversion="1" nodesatellites_param="F,0,0,1,0,2.6458333,0,1 @ F,0,0,1,0,2.6458333,0,1 @ F,0,0,1,0,2.6458333,0,1 @ F,0,0,1,0,2.6458333,0,1 @ F,0,0,1,0,2.6458333,0,1 @ F,0,0,1,0,2.6458333,0,1 @ F,0,0,1,0,2.6458333,0,1 @ F,0,0,1,0,2.6458333,0,1 | F,0,0,1,0,2.6458333,0,1 @ F,0,0,1,0,2.6458333,0,1 @ F,0,0,1,0,2.6458333,0,1 @ F,0,0,1,0,2.6458333,0,1 @ F,0,0,1,0,2.6458333,0,1 @ F,0,0,1,0,2.6458333,0,1 | F,0,0,1,0,2.6458333,0,1 @ F,0,0,1,0,2.6458333,0,1 @ F,0,0,1,0,2.6458333,0,1 @ F,0,0,1,0,2.6458333,0,1 | F,0,0,1,0,2.6458333,0,1 @ F,0,0,1,0,2.6458333,0,1 @ F,0,0,1,0,2.6458333,0,1 @ F,0,0,1,0,2.6458333,0,1 | F,0,0,1,0,2.6458333,0,1 @ F,0,0,1,0,2.6458333,0,1 @ F,0,0,1,0,2.6458333,0,1 @ F,0,0,1,0,2.6458333,0,1 @ F,0,0,1,0,2.6458333,0,1 @ F,0,0,1,0,2.6458333,0,1 @ F,0,0,1,0,2.6458333,0,1 @ F,0,0,1,0,2.6458333,0,1 | F,0,0,1,0,2.6458333,0,1 @ F,0,0,1,0,2.6458333,0,1 @ F,0,0,1,0,2.6458333,0,1 @ F,0,0,1,0,2.6458333,0,1 @ F,0,0,1,0,2.6458333,0,1 @ F,0,0,1,0,2.6458333,0,1 @ F,0,0,1,0,2.6458333,0,1 @ F,0,0,1,0,2.6458333,0,1 @ F,0,0,1,0,2.6458333,0,1 @ F,0,0,1,0,2.6458333,0,1 @ F,0,0,1,0,2.6458333,0,1 @ F,0,0,1,0,2.6458333,0,1" radius="10" unit="px" method="auto" mode="F" chamfer_steps="1" flexible="false" use_knot_distance="true" apply_no_radius="true" apply_with_radius="true" only_selected="false" hide_knots="false"/>
    <inkscape:path-effect effect="fillet_chamfer" id="path-effect3-7" is_visible="true" lpeversion="1" nodesatellites_param="F,0,0,1,0,2.6458333,0,1 @ F,0,0,1,0,2.6458333,0,1 @ F,0,0,1,0,2.6458333,0,1 @ F,0,0,1,0,2.6458333,0,1 @ F,0,0,1,0,2.6458333,0,1 @ F,0,0,1,0,2.6458333,0,1 @ F,0,0,1,0,2.6458333,0,1 @ F,0,0,1,0,2.6458333,0,1 | F,0,0,1,0,2.6458333,0,1 @ F,0,0,1,0,2.6458333,0,1 @ F,0,0,1,0,2.6458333,0,1 @ F,0,0,1,0,2.6458333,0,1 @ F,0,0,1,0,2.6458333,0,1 @ F,0,0,1,0,2.6458333,0,1 | F,0,0,1,0,2.6458333,0,1 @ F,0,0,1,0,2.6458333,0,1 @ F,0,0,1,0,2.6458333,0,1 @ F,0,0,1,0,2.6458333,0,1 | F,0,0,1,0,2.6458333,0,1 @ F,0,0,1,0,2.6458333,0,1 @ F,0,0,1,0,2.6458333,0,1 @ F,0,0,1,0,2.6458333,0,1 | F,0,0,1,0,2.6458333,0,1 @ F,0,0,1,0,2.6458333,0,1 @ F,0,0,1,0,2.6458333,0,1 @ F,0,0,1,0,2.6458333,0,1 @ F,0,0,1,0,2.6458333,0,1 @ F,0,0,1,0,2.6458333,0,1 @ F,0,0,1,0,2.6458333,0,1 @ F,0,0,1,0,2.6458333,0,1 | F,0,0,1,0,2.6458333,0,1 @ F,0,0,1,0,2.6458333,0,1 @ F,0,0,1,0,2.6458333,0,1 @ F,0,0,1,0,2.6458333,0,1 @ F,0,0,1,0,2.6458333,0,1 @ F,0,0,1,0,2.6458333,0,1 @ F,0,0,1,0,2.6458333,0,1 @ F,0,0,1,0,2.6458333,0,1 @ F,0,0,1,0,2.6458333,0,1 @ F,0,0,1,0,2.6458333,0,1 @ F,0,0,1,0,2.6458333,0,1 @ F,0,0,1,0,2.6458333,0,1" radius="10" unit="px" method="auto" mode="F" chamfer_steps="1" flexible="false" use_knot_distance="true" apply_no_radius="true" apply_with_radius="true" only_selected="false" hide_knots="false"/>
  </defs>
  <g inkscape:label="Layer 1" inkscape:groupmode="layer" id="layer1">
    <path style="fill:#58bf89;fill-opacity:1;stroke-width:0.265;stroke-dasharray:none" id="rect3" width="301.71744" height="93.885475" x="9.3617992" y="6.6869993" inkscape:path-effect="#path-effect4" sodipodi:type="rect" d="m 14.653466,6.6869993 291.134104,0 a 5.2916665,5.2916665 45 0 1 5.29167,5.2916667 v 83.302142 a 5.2916665,5.2916665 135 0 1 -5.29167,5.291662 H 14.653466 A 5.2916665,5.2916665 45 0 1 9.3617992,95.280808 V 11.978666 A 5.2916665,5.2916665 135 0 1 14.653466,6.6869993 Z" transform="matrix(1.0084628,0,0,0.9863524,-2.8264373,0.0188453)"/>
    <g id="epoch-float">
      <g id="epoch-shadow">
        <path d="m 38.099996,69.320834 0,-32.808333 a 2.6458333,2.6458333 135 0 1 2.645833,-2.645833 h 32.808334 a 2.6458333,2.6458333 45 0 1 2.645833,2.645833 v 7.408334 a 2.6458333,2.6458333 135 0 1 -2.645833,2.645833 h -7.408334 a 2.6458333,2.6458333 135 0 0 -2.645833,2.645833 v 7.408333 a 2.6458333,2.6458333 45 0 0 2.645833,2.645833 l 7.408334,0 a 2.6458333,2.6458333 45 0 1 2.645833,2.645833 v 7.408334 a 2.6458333,2.6458333 135 0 1 -2.645833,2.645833 l -32.808334,0 A 2.6458333,2.6458333 45 0 1 38.099996,69.320834 Z M 101.6,61.9125 v 7.408334 a 2.6458333,2.6458333 135 0 1 -2.645833,2.645833 H 91.545828 A 2.6458333,2.6458333 45 0 1 88.899995,69.320834 V 36.512501 a 2.6458333,2.6458333 135 0 1 2.645833,-2.645833 h 32.808332 a 2.6458333,2.6458333 45 0 1 2.64583,2.645833 v 20.108333 a 2.6458333,2.6458333 135 0 1 -2.64583,2.645833 H 104.24583 A 2.6458333,2.6458333 135 0 0 101.6,61.9125 Z m 63.49999,-5.291666 v -7.408333 a 2.6458333,2.6458333 45 0 0 -2.64583,-2.645833 l -7.40834,0 a 2.6458333,2.6458333 135 0 0 -2.64583,2.645833 v 7.408333 a 2.6458333,2.6458333 45 0 0 2.64583,2.645833 l 7.40834,0 a 2.6458333,2.6458333 135 0 0 2.64583,-2.645833 z m -25.4,12.7 V 36.512501 a 2.6458333,2.6458333 135 0 1 2.64583,-2.645833 h 32.80834 a 2.6458333,2.6458333 45 0 1 2.64583,2.645833 v 32.808333 a 2.6458333,2.6458333 135 0 1 -2.64583,2.645833 h -32.80834 a 2.6458333,2.6458333 45 0 1 -2.64583,-2.645833 z m 53.44583,-35.454166 h 32.80834 a 2.6458333,2.6458333 45 0 1 2.64583,2.645833 l 0,7.408334 a 2.6458333,2.6458333 135 0 1 -2.64583,2.645833 h -20.10834 a 2.6458333,2.6458333 135 0 0 -2.64583,2.645833 v 7.408333 a 2.6458333,2.6458333 45 0 0 2.64583,2.645833 h 20.10834 a 2.6458333,2.6458333 45 0 1 2.64583,2.645833 v 7.408334 a 2.6458333,2.6458333 135 0 1 -2.64583,2.645833 h -32.80834 a 2.6458333,2.6458333 45 0 1 -2.64583,-2.645833 V 36.512501 a 2.6458333,2.6458333 135 0 1 2.64583,-2.645833 z m 70.90834,25.399999 -7.40834,0 a 2.6458333,2.6458333 135 0 0 -2.64583,2.645833 v 7.408334 a 2.6458333,2.6458333 135 0 1 -2.64583,2.645833 h -7.40834 a 2.6458333,2.6458333 45 0 1 -2.64583,-2.645833 V 36.512501 a 2.6458333,2.6458333 135 0 1 2.64583,-2.645833 h 7.40834 a 2.6458333,2.6458333 45 0 1 2.64583,2.645833 v 7.408334 a 2.6458333,2.6458333 45 0 0 2.64583,2.645833 l 7.40834,0 a 2.6458333,2.6458333 135 0 0 2.64583,-2.645833 v -7.408334 a 2.6458333,2.6458333 135 0 1 2.64583,-2.645833 h 7.40834 a 2.6458333,2.6458333 45 0 1 2.64583,2.645833 v 32.808333 a 2.6458333,2.6458333 135 0 1 -2.64583,2.645833 h -7.40834 a 2.6458333,2.6458333 45 0 1 -2.64583,-2.645833 V 61.9125 a 2.6458333,2.6458333 45 0 0 -2.64583,-2.645833 z" id="text2-5" style="font-size:50.8px;font-family:'3x3 monospace';-inkscape-font-specification:'3x3 monospace';fill:#4ab67b;fill-opacity:1;stroke-width:0.264583" transform="matrix(1.0964912,0,0,1.0964912,-12.672145,-2.7386712)">
          <animate attributeName="opacity" values="0.85;0.55;0.85" dur="3.6s" repeatCount="indefinite"/>
          <animateTransform attributeName="transform" additive="sum" type="translate" values="0 0; -0.35 0.25; 0 0" dur="3.6s" repeatCount="indefinite"/>
        </path>
      </g>
      <g id="epoch-fore" transform-origin="158.75 52.9" style="transform-box: fill-box;">
        <path d="m 38.099996,69.320834 0,-32.808333 a 2.6458333,2.6458333 135 0 1 2.645833,-2.645833 h 32.808334 a 2.6458333,2.6458333 45 0 1 2.645833,2.645833 v 7.408334 a 2.6458333,2.6458333 135 0 1 -2.645833,2.645833 h -7.408334 a 2.6458333,2.6458333 135 0 0 -2.645833,2.645833 v 7.408333 a 2.6458333,2.6458333 45 0 0 2.645833,2.645833 l 7.408334,0 a 2.6458333,2.6458333 45 0 1 2.645833,2.645833 v 7.408334 a 2.6458333,2.6458333 135 0 1 -2.645833,2.645833 l -32.808334,0 A 2.6458333,2.6458333 45 0 1 38.099996,69.320834 Z M 101.6,61.9125 v 7.408334 a 2.6458333,2.6458333 135 0 1 -2.645833,2.645833 H 91.545828 A 2.6458333,2.6458333 45 0 1 88.899995,69.320834 V 36.512501 a 2.6458333,2.6458333 135 0 1 2.645833,-2.645833 h 32.808332 a 2.6458333,2.6458333 45 0 1 2.64583,2.645833 v 20.108333 a 2.6458333,2.6458333 135 0 1 -2.64583,2.645833 H 104.24583 A 2.6458333,2.6458333 135 0 0 101.6,61.9125 Z m 63.49999,-5.291666 v -7.408333 a 2.6458333,2.6458333 45 0 0 -2.64583,-2.645833 l -7.40834,0 a 2.6458333,2.6458333 135 0 0 -2.64583,2.645833 v 7.408333 a 2.6458333,2.6458333 45 0 0 2.64583,2.645833 l 7.40834,0 a 2.6458333,2.6458333 135 0 0 2.64583,-2.645833 z m -25.4,12.7 V 36.512501 a 2.6458333,2.6458333 135 0 1 2.64583,-2.645833 h 32.80834 a 2.6458333,2.6458333 45 0 1 2.64583,2.645833 v 32.808333 a 2.6458333,2.6458333 135 0 1 -2.64583,2.645833 h -32.80834 a 2.6458333,2.6458333 45 0 1 -2.64583,-2.645833 z m 53.44583,-35.454166 h 32.80834 a 2.6458333,2.6458333 45 0 1 2.64583,2.645833 l 0,7.408334 a 2.6458333,2.6458333 135 0 1 -2.64583,2.645833 h -20.10834 a 2.6458333,2.6458333 135 0 0 -2.64583,2.645833 v 7.408333 a 2.6458333,2.6458333 45 0 0 2.64583,2.645833 h 20.10834 a 2.6458333,2.6458333 45 0 1 2.64583,2.645833 v 7.408334 a 2.6458333,2.6458333 135 0 1 -2.64583,2.645833 h -32.80834 a 2.6458333,2.6458333 45 0 1 -2.64583,-2.645833 V 36.512501 a 2.6458333,2.6458333 135 0 1 2.64583,-2.645833 z m 70.90834,25.399999 -7.40834,0 a 2.6458333,2.6458333 135 0 0 -2.64583,2.645833 v 7.408334 a 2.6458333,2.6458333 135 0 1 -2.64583,2.645833 h -7.40834 a 2.6458333,2.6458333 45 0 1 -2.64583,-2.645833 V 36.512501 a 2.6458333,2.6458333 135 0 1 2.64583,-2.645833 h 7.40834 a 2.6458333,2.6458333 45 0 1 2.64583,2.645833 v 7.408334 a 2.6458333,2.6458333 45 0 0 2.64583,2.645833 l 7.40834,0 a 2.6458333,2.6458333 135 0 0 2.64583,-2.645833 v -7.408334 a 2.6458333,2.6458333 135 0 1 2.64583,-2.645833 h 7.40834 a 2.6458333,2.6458333 45 0 1 2.64583,2.645833 v 32.808333 a 2.6458333,2.6458333 135 0 1 -2.64583,2.645833 h -7.40834 a 2.6458333,2.6458333 45 0 1 -2.64583,-2.645833 V 61.9125 a 2.6458333,2.6458333 45 0 0 -2.64583,-2.645833 z" id="text2" style="font-size:50.8px;font-family:'3x3 monospace';-inkscape-font-specification:'3x3 monospace';fill:#ffffff;stroke-width:0.264583" transform="matrix(1.0964912,0,0,1.0964912,-15.317975,-5.1059952)">
          <animateTransform attributeName="transform" type="scale" additive="sum" values="1 1 158.75 52.9;
                          1.012 1.012 158.75 52.9;
                          1 1 158.75 52.9" dur="3.6s" repeatCount="indefinite"/>
        </path>
      </g>
      <animateTransform attributeName="transform" type="translate" values="0 0; 0 -3; 0 0" dur="3.6s" repeatCount="indefinite" keySplines="0.42 0 0.58 1; 0.42 0 0.58 1" calcMode="spline"/>
    </g>
  </g>
</svg>
