<svg width="2135.798" height="350" viewBox="0 0 565.096 92.604" xmlns="http://www.w3.org/2000/svg"><defs><mask id="a"><path fill="#fff" d="M7 0h304v90H7z"/></mask></defs><path style="fill:#58bf89;fill-opacity:1;stroke-width:.265;stroke-dasharray:none" transform="matrix(1.00846 0 0 .98635 118.882 -6.596)" d="M14.653 6.687h291.135a5.29 5.29 45 0 1 5.291 5.292V95.28a5.29 5.29 135 0 1-5.291 5.291H14.653a5.29 5.29 45 0 1-5.291-5.291V11.979a5.29 5.29 135 0 1 5.291-5.292"/><g mask="url(#a)" transform="translate(121.708 -6.615)"><g><path style="font-weight:500;font-size:70.5555px;font-family:&quot;Pixelify Sans&quot;;-inkscape-font-specification:&quot;Pixelify Sans Medium&quot;;letter-spacing:0;word-spacing:-3.39725px;fill:#fff;stroke-width:.265" d="M97.192 63.003v-1.987c0-.56-.455-1.016-1.016-1.016h-2.032a1.016 1.016 0 0 1-1.016-1.016V47.967c0-.562.455-1.016 1.016-1.016h2.032c.56 0 1.016-.455 1.016-1.016v-2.032c0-.562.455-1.016 1.016-1.016h11.063c.56 0 1.016.454 1.016 1.016v2.032c0 .56.455 1.016 1.016 1.016h2.077c.561 0 1.016.454 1.016 1.016v2.98c0 .56-.455 1.016-1.016 1.016h-2.98a1.016 1.016 0 0 1-1.016-1.016V48.96c0-.561-.455-1.016-1.016-1.016H99.11c-.561 0-1.016.455-1.016 1.016v.903c0 .561.455 1.016 1.016 1.016h6.096c.56 0 1.016.455 1.016 1.016v3.07c0 .562-.455 1.017-1.016 1.017H99.11c-.561 0-1.016.455-1.016 1.016v.948c0 .561.455 1.016 1.016 1.016h9.257c.56 0 1.016-.455 1.016-1.016v-2.077c0-.561.455-1.016 1.016-1.016h2.98c.561 0 1.016.455 1.016 1.016v3.07c0 .561-.455 1.016-1.016 1.016h-2.077c-.561 0-1.016.455-1.016 1.016v2.032c0 .561-.455 1.016-1.016 1.016H98.208a1.016 1.016 0 0 1-1.016-1.016m22.668 7.767V47.967c0-.562.455-1.016 1.016-1.016h2.032c.56 0 1.016-.455 1.016-1.016v-2.032c0-.562.455-1.016 1.016-1.016h11.063c.561 0 1.016.454 1.016 1.016v2.032c0 .56.455 1.016 1.016 1.016h2.077c.561 0 1.016.454 1.016 1.016v11.017c0 .562-.455 1.016-1.016 1.016h-2.077c-.561 0-1.016.455-1.016 1.016v1.987c0 .561-.455 1.016-1.016 1.016h-10.16c-.561 0-1.016.455-1.016 1.016v5.735c0 .561-.455 1.016-1.016 1.016h-2.935a1.016 1.016 0 0 1-1.016-1.016m5.983-11.808h9.257c.56 0 1.016-.455 1.016-1.016V48.96c0-.561-.455-1.016-1.016-1.016h-9.257c-.561 0-1.016.455-1.016 1.016v8.986c0 .561.455 1.016 1.016 1.016m24.813 4.041v-1.987c0-.56-.455-1.016-1.016-1.016h-2.032a1.016 1.016 0 0 1-1.016-1.016V47.967c0-.562.455-1.016 1.016-1.016h2.032c.561 0 1.016-.455 1.016-1.016v-2.032c0-.562.455-1.016 1.016-1.016h11.063c.561 0 1.016.454 1.016 1.016v2.032c0 .56.455 1.016 1.016 1.016h2.077c.561 0 1.016.454 1.016 1.016v11.017c0 .562-.455 1.016-1.016 1.016h-2.077c-.561 0-1.016.455-1.016 1.016v1.987c0 .561-.455 1.016-1.016 1.016h-11.063a1.016 1.016 0 0 1-1.016-1.016m1.919-4.041h9.257c.561 0 1.016-.455 1.016-1.016V48.96c0-.561-.455-1.016-1.016-1.016h-9.257c-.561 0-1.016.455-1.016 1.016v8.986c0 .561.455 1.016 1.016 1.016m24.813 4.041v-1.987c0-.56-.455-1.016-1.016-1.016h-2.032a1.016 1.016 0 0 1-1.016-1.016V47.967c0-.562.455-1.016 1.016-1.016h2.032c.561 0 1.016-.455 1.016-1.016v-2.032c0-.562.455-1.016 1.016-1.016h11.063c.561 0 1.016.454 1.016 1.016v2.032c0 .56.455 1.016 1.016 1.016h2.077c.561 0 1.016.454 1.016 1.016v2.98c0 .56-.455 1.016-1.016 1.016h-2.98a1.016 1.016 0 0 1-1.016-1.016V48.96c0-.561-.455-1.016-1.016-1.016h-9.257c-.561 0-1.016.455-1.016 1.016v8.986c0 .561.455 1.016 1.016 1.016h9.257c.561 0 1.016-.455 1.016-1.016v-2.032c0-.561.455-1.016 1.016-1.016h2.98c.561 0 1.016.455 1.016 1.016v3.07c0 .562-.455 1.016-1.016 1.016H191.5c-.561 0-1.016.455-1.016 1.016v1.987c0 .561-.455 1.016-1.016 1.016h-11.063a1.016 1.016 0 0 1-1.016-1.016m21.765 0V35.91c0-.561.455-1.016 1.016-1.016h2.935c.561 0 1.016.455 1.016 1.016v10.025c0 .56.455 1.016 1.016 1.016h1.129c.561 0 1.016-.455 1.016-1.016v-2.032c0-.562.455-1.016 1.016-1.016h7c.56 0 1.015.454 1.015 1.016v2.032c0 .56.455 1.016 1.016 1.016h2.077c.561 0 1.016.454 1.016 1.016v15.036c0 .561-.455 1.016-1.016 1.016h-2.98a1.016 1.016 0 0 1-1.016-1.016V48.96c0-.561-.455-1.016-1.016-1.016h-5.238c-.561 0-1.016.455-1.016 1.016v1.987c0 .56-.455 1.016-1.016 1.016h-1.987c-.561 0-1.016.455-1.016 1.016v10.024c0 .561-.455 1.016-1.016 1.016h-2.935a1.016 1.016 0 0 1-1.016-1.016m43.959 0v-1.987c0-.56-.455-1.016-1.016-1.016h-2.032a1.016 1.016 0 0 1-1.016-1.016V47.967c0-.562.455-1.016 1.016-1.016h2.032c.561 0 1.016-.455 1.016-1.016v-2.032c0-.562.455-1.016 1.016-1.016h11.063c.561 0 1.016.454 1.016 1.016v2.032c0 .56.455 1.016 1.016 1.016h2.077c.561 0 1.016.454 1.016 1.016v2.98c0 .56-.455 1.016-1.016 1.016h-2.98a1.016 1.016 0 0 1-1.016-1.016V48.96c0-.561-.455-1.016-1.016-1.016h-9.257c-.561 0-1.016.455-1.016 1.016v.903c0 .561.455 1.016 1.016 1.016h6.096c.561 0 1.016.455 1.016 1.016v3.07c0 .562-.455 1.017-1.016 1.017h-6.096c-.561 0-1.016.455-1.016 1.016v.948c0 .561.455 1.016 1.016 1.016h9.257c.561 0 1.016-.455 1.016-1.016v-2.077c0-.561.455-1.016 1.016-1.016h2.98c.561 0 1.016.455 1.016 1.016v3.07c0 .561-.455 1.016-1.016 1.016h-2.077c-.561 0-1.016.455-1.016 1.016v2.032c0 .561-.455 1.016-1.016 1.016h-11.063a1.016 1.016 0 0 1-1.016-1.016m22.668 7.767V47.967c0-.562.455-1.016 1.016-1.016h2.032c.561 0 1.016-.455 1.016-1.016v-2.032c0-.562.455-1.016 1.016-1.016h11.063c.561 0 1.016.454 1.016 1.016v2.032c0 .56.455 1.016 1.016 1.016h2.077c.561 0 1.016.454 1.016 1.016v11.017c0 .562-.455 1.016-1.016 1.016h-2.077c-.561 0-1.016.455-1.016 1.016v1.987c0 .561-.455 1.016-1.016 1.016h-10.16c-.561 0-1.016.455-1.016 1.016v5.735c0 .561-.455 1.016-1.016 1.016h-2.935a1.016 1.016 0 0 1-1.016-1.016m5.983-11.808h9.257c.561 0 1.016-.455 1.016-1.016V48.96c0-.561-.455-1.016-1.016-1.016h-9.257c-.561 0-1.016.455-1.016 1.016v8.986c0 .561.455 1.016 1.016 1.016m24.813 4.041v-1.987c0-.56-.455-1.016-1.016-1.016h-2.032a1.016 1.016 0 0 1-1.016-1.016V47.967c0-.562.455-1.016 1.016-1.016h2.032c.561 0 1.016-.455 1.016-1.016v-2.032c0-.562.455-1.016 1.016-1.016h11.063c.561 0 1.016.454 1.016 1.016v2.032c0 .56.455 1.016 1.016 1.016h2.077c.562 0 1.016.454 1.016 1.016v11.017c0 .562-.454 1.016-1.016 1.016h-2.077c-.56 0-1.016.455-1.016 1.016v1.987c0 .561-.455 1.016-1.016 1.016h-11.063a1.016 1.016 0 0 1-1.016-1.016m1.92-4.041h9.256c.561 0 1.016-.455 1.016-1.016V48.96c0-.561-.455-1.016-1.016-1.016h-9.257c-.56 0-1.016.455-1.016 1.016v8.986c0 .561.455 1.016 1.016 1.016m24.812 4.041v-1.987c0-.56-.455-1.016-1.016-1.016h-2.032a1.016 1.016 0 0 1-1.016-1.016V47.967c0-.562.455-1.016 1.016-1.016h2.032c.561 0 1.016-.455 1.016-1.016v-2.032c0-.562.455-1.016 1.016-1.016h11.063c.561 0 1.016.454 1.016 1.016v2.032c0 .56.455 1.016 1.016 1.016h2.078c.56 0 1.016.454 1.016 1.016v2.98c0 .56-.455 1.016-1.016 1.016h-2.98a1.016 1.016 0 0 1-1.017-1.016V48.96c0-.561-.455-1.016-1.016-1.016h-9.257c-.56 0-1.016.455-1.016 1.016v8.986c0 .561.455 1.016 1.016 1.016h9.257c.561 0 1.016-.455 1.016-1.016v-2.032c0-.561.455-1.016 1.016-1.016h2.98c.562 0 1.017.455 1.017 1.016v3.07c0 .562-.455 1.016-1.016 1.016h-2.078c-.56 0-1.016.455-1.016 1.016v1.987c0 .561-.455 1.016-1.016 1.016h-11.063a1.016 1.016 0 0 1-1.016-1.016m21.765 0V35.91c0-.561.455-1.016 1.016-1.016h2.935c.561 0 1.016.455 1.016 1.016v10.025c0 .56.455 1.016 1.016 1.016h1.13c.56 0 1.015-.455 1.015-1.016v-2.032c0-.562.455-1.016 1.016-1.016h7c.56 0 1.015.454 1.015 1.016v2.032c0 .56.455 1.016 1.016 1.016h2.077c.562 0 1.016.454 1.016 1.016v15.036c0 .561-.454 1.016-1.016 1.016h-2.98a1.016 1.016 0 0 1-1.016-1.016V48.96c0-.561-.455-1.016-1.016-1.016h-5.238c-.56 0-1.016.455-1.016 1.016v1.987c0 .56-.455 1.016-1.016 1.016h-1.987c-.56 0-1.016.455-1.016 1.016v10.024c0 .561-.455 1.016-1.016 1.016h-2.935a1.016 1.016 0 0 1-1.016-1.016m43.96 0v-1.987c0-.56-.456-1.016-1.017-1.016h-2.032a1.016 1.016 0 0 1-1.016-1.016V47.967c0-.562.455-1.016 1.016-1.016h2.032c.561 0 1.016-.455 1.016-1.016v-2.032c0-.562.455-1.016 1.016-1.016h11.063c.561 0 1.016.454 1.016 1.016v2.032c0 .56.455 1.016 1.016 1.016h2.077c.562 0 1.016.454 1.016 1.016v2.98c0 .56-.454 1.016-1.016 1.016h-2.98a1.016 1.016 0 0 1-1.016-1.016V48.96c0-.561-.455-1.016-1.016-1.016h-9.257c-.56 0-1.016.455-1.016 1.016v.903c0 .561.455 1.016 1.016 1.016h6.096c.561 0 1.016.455 1.016 1.016v3.07c0 .562-.455 1.017-1.016 1.017h-6.096c-.56 0-1.016.455-1.016 1.016v.948c0 .561.455 1.016 1.016 1.016h9.257c.561 0 1.016-.455 1.016-1.016v-2.077c0-.561.455-1.016 1.016-1.016h2.98c.562 0 1.016.455 1.016 1.016v3.07c0 .561-.454 1.016-1.016 1.016h-2.077c-.56 0-1.016.455-1.016 1.016v2.032c0 .561-.455 1.016-1.016 1.016h-11.063a1.016 1.016 0 0 1-1.016-1.016M411.7 70.77V47.967c0-.562.455-1.016 1.016-1.016h2.032c.561 0 1.016-.455 1.016-1.016v-2.032c0-.562.455-1.016 1.016-1.016h11.063c.561 0 1.016.454 1.016 1.016v2.032c0 .56.455 1.016 1.016 1.016h2.078c.56 0 1.016.454 1.016 1.016v11.017c0 .562-.455 1.016-1.016 1.016h-2.078c-.56 0-1.016.455-1.016 1.016v1.987c0 .561-.455 1.016-1.016 1.016h-10.16c-.56 0-1.016.455-1.016 1.016v5.735c0 .561-.455 1.016-1.016 1.016h-2.935a1.016 1.016 0 0 1-1.016-1.016m5.983-11.808h9.257c.561 0 1.016-.455 1.016-1.016V48.96c0-.561-.455-1.016-1.016-1.016h-9.257c-.56 0-1.016.455-1.016 1.016v8.986c0 .561.455 1.016 1.016 1.016m24.813 4.041v-1.987c0-.56-.455-1.016-1.016-1.016h-2.032a1.016 1.016 0 0 1-1.016-1.016V47.967c0-.562.455-1.016 1.016-1.016h2.032c.561 0 1.016-.455 1.016-1.016v-2.032c0-.562.455-1.016 1.016-1.016h11.063c.562 0 1.016.454 1.016 1.016v2.032c0 .56.455 1.016 1.016 1.016h2.078c.56 0 1.016.454 1.016 1.016v11.017c0 .562-.455 1.016-1.016 1.016h-2.078c-.56 0-1.016.455-1.016 1.016v1.987c0 .561-.454 1.016-1.016 1.016h-11.063a1.016 1.016 0 0 1-1.016-1.016m1.92-4.041h9.256c.561 0 1.016-.455 1.016-1.016V48.96c0-.561-.455-1.016-1.016-1.016h-9.257c-.56 0-1.016.455-1.016 1.016v8.986c0 .561.455 1.016 1.016 1.016m24.812 4.041v-1.987c0-.56-.454-1.016-1.016-1.016h-2.032a1.016 1.016 0 0 1-1.016-1.016V47.967c0-.562.455-1.016 1.016-1.016h2.032c.562 0 1.016-.455 1.016-1.016v-2.032c0-.562.455-1.016 1.016-1.016h11.064c.56 0 1.016.454 1.016 1.016v2.032c0 .56.454 1.016 1.016 1.016h2.077c.56 0 1.016.454 1.016 1.016v2.98c0 .56-.455 1.016-1.016 1.016h-2.98a1.016 1.016 0 0 1-1.017-1.016V48.96c0-.561-.454-1.016-1.016-1.016h-9.256c-.562 0-1.016.455-1.016 1.016v8.986c0 .561.454 1.016 1.016 1.016h9.256c.562 0 1.016-.455 1.016-1.016v-2.032c0-.561.455-1.016 1.016-1.016h2.98c.562 0 1.017.455 1.017 1.016v3.07c0 .562-.455 1.016-1.016 1.016h-2.077c-.562 0-1.016.455-1.016 1.016v1.987c0 .561-.455 1.016-1.016 1.016h-11.064a1.016 1.016 0 0 1-1.016-1.016m21.765 0V35.91c0-.561.455-1.016 1.016-1.016h2.936c.56 0 1.016.455 1.016 1.016v10.025c0 .56.454 1.016 1.016 1.016h1.128c.562 0 1.016-.455 1.016-1.016v-2.032c0-.562.455-1.016 1.016-1.016h7c.56 0 1.016.454 1.016 1.016v2.032c0 .56.454 1.016 1.016 1.016h2.077c.56 0 1.016.454 1.016 1.016v15.036c0 .561-.455 1.016-1.016 1.016h-2.98a1.016 1.016 0 0 1-1.017-1.016V48.96c0-.561-.454-1.016-1.016-1.016h-5.238c-.56 0-1.016.455-1.016 1.016v1.987c0 .56-.454 1.016-1.016 1.016h-1.986c-.562 0-1.016.455-1.016 1.016v10.024c0 .561-.455 1.016-1.016 1.016h-2.936a1.016 1.016 0 0 1-1.016-1.016" aria-label="epoch" transform="translate(-214.836 21.991)"/><animateTransform attributeName="transform" type="translate" from="0 0" to="145.4 0" dur="5s" repeatCount="indefinite" calcMode="linear"/></g><g><path style="font-weight:500;font-size:70.5555px;font-family:&quot;Pixelify Sans&quot;;-inkscape-font-specification:&quot;Pixelify Sans Medium&quot;;letter-spacing:0;word-spacing:-3.39725px;fill:#fff;stroke-width:.265" d="M97.192 63.003v-1.987c0-.56-.455-1.016-1.016-1.016h-2.032a1.016 1.016 0 0 1-1.016-1.016V47.967c0-.562.455-1.016 1.016-1.016h2.032c.56 0 1.016-.455 1.016-1.016v-2.032c0-.562.455-1.016 1.016-1.016h11.063c.56 0 1.016.454 1.016 1.016v2.032c0 .56.455 1.016 1.016 1.016h2.077c.561 0 1.016.454 1.016 1.016v2.98c0 .56-.455 1.016-1.016 1.016h-2.98a1.016 1.016 0 0 1-1.016-1.016V48.96c0-.561-.455-1.016-1.016-1.016H99.11c-.561 0-1.016.455-1.016 1.016v.903c0 .561.455 1.016 1.016 1.016h6.096c.56 0 1.016.455 1.016 1.016v3.07c0 .562-.455 1.017-1.016 1.017H99.11c-.561 0-1.016.455-1.016 1.016v.948c0 .561.455 1.016 1.016 1.016h9.257c.56 0 1.016-.455 1.016-1.016v-2.077c0-.561.455-1.016 1.016-1.016h2.98c.561 0 1.016.455 1.016 1.016v3.07c0 .561-.455 1.016-1.016 1.016h-2.077c-.561 0-1.016.455-1.016 1.016v2.032c0 .561-.455 1.016-1.016 1.016H98.208a1.016 1.016 0 0 1-1.016-1.016m22.668 7.767V47.967c0-.562.455-1.016 1.016-1.016h2.032c.56 0 1.016-.455 1.016-1.016v-2.032c0-.562.455-1.016 1.016-1.016h11.063c.561 0 1.016.454 1.016 1.016v2.032c0 .56.455 1.016 1.016 1.016h2.077c.561 0 1.016.454 1.016 1.016v11.017c0 .562-.455 1.016-1.016 1.016h-2.077c-.561 0-1.016.455-1.016 1.016v1.987c0 .561-.455 1.016-1.016 1.016h-10.16c-.561 0-1.016.455-1.016 1.016v5.735c0 .561-.455 1.016-1.016 1.016h-2.935a1.016 1.016 0 0 1-1.016-1.016m5.983-11.808h9.257c.56 0 1.016-.455 1.016-1.016V48.96c0-.561-.455-1.016-1.016-1.016h-9.257c-.561 0-1.016.455-1.016 1.016v8.986c0 .561.455 1.016 1.016 1.016m24.813 4.041v-1.987c0-.56-.455-1.016-1.016-1.016h-2.032a1.016 1.016 0 0 1-1.016-1.016V47.967c0-.562.455-1.016 1.016-1.016h2.032c.561 0 1.016-.455 1.016-1.016v-2.032c0-.562.455-1.016 1.016-1.016h11.063c.561 0 1.016.454 1.016 1.016v2.032c0 .56.455 1.016 1.016 1.016h2.077c.561 0 1.016.454 1.016 1.016v11.017c0 .562-.455 1.016-1.016 1.016h-2.077c-.561 0-1.016.455-1.016 1.016v1.987c0 .561-.455 1.016-1.016 1.016h-11.063a1.016 1.016 0 0 1-1.016-1.016m1.919-4.041h9.257c.561 0 1.016-.455 1.016-1.016V48.96c0-.561-.455-1.016-1.016-1.016h-9.257c-.561 0-1.016.455-1.016 1.016v8.986c0 .561.455 1.016 1.016 1.016m24.813 4.041v-1.987c0-.56-.455-1.016-1.016-1.016h-2.032a1.016 1.016 0 0 1-1.016-1.016V47.967c0-.562.455-1.016 1.016-1.016h2.032c.561 0 1.016-.455 1.016-1.016v-2.032c0-.562.455-1.016 1.016-1.016h11.063c.561 0 1.016.454 1.016 1.016v2.032c0 .56.455 1.016 1.016 1.016h2.077c.561 0 1.016.454 1.016 1.016v2.98c0 .56-.455 1.016-1.016 1.016h-2.98a1.016 1.016 0 0 1-1.016-1.016V48.96c0-.561-.455-1.016-1.016-1.016h-9.257c-.561 0-1.016.455-1.016 1.016v8.986c0 .561.455 1.016 1.016 1.016h9.257c.561 0 1.016-.455 1.016-1.016v-2.032c0-.561.455-1.016 1.016-1.016h2.98c.561 0 1.016.455 1.016 1.016v3.07c0 .562-.455 1.016-1.016 1.016H191.5c-.561 0-1.016.455-1.016 1.016v1.987c0 .561-.455 1.016-1.016 1.016h-11.063a1.016 1.016 0 0 1-1.016-1.016m21.765 0V35.91c0-.561.455-1.016 1.016-1.016h2.935c.561 0 1.016.455 1.016 1.016v10.025c0 .56.455 1.016 1.016 1.016h1.129c.561 0 1.016-.455 1.016-1.016v-2.032c0-.562.455-1.016 1.016-1.016h7c.56 0 1.015.454 1.015 1.016v2.032c0 .56.455 1.016 1.016 1.016h2.077c.561 0 1.016.454 1.016 1.016v15.036c0 .561-.455 1.016-1.016 1.016h-2.98a1.016 1.016 0 0 1-1.016-1.016V48.96c0-.561-.455-1.016-1.016-1.016h-5.238c-.561 0-1.016.455-1.016 1.016v1.987c0 .56-.455 1.016-1.016 1.016h-1.987c-.561 0-1.016.455-1.016 1.016v10.024c0 .561-.455 1.016-1.016 1.016h-2.935a1.016 1.016 0 0 1-1.016-1.016m43.959 0v-1.987c0-.56-.455-1.016-1.016-1.016h-2.032a1.016 1.016 0 0 1-1.016-1.016V47.967c0-.562.455-1.016 1.016-1.016h2.032c.561 0 1.016-.455 1.016-1.016v-2.032c0-.562.455-1.016 1.016-1.016h11.063c.561 0 1.016.454 1.016 1.016v2.032c0 .56.455 1.016 1.016 1.016h2.077c.561 0 1.016.454 1.016 1.016v2.98c0 .56-.455 1.016-1.016 1.016h-2.98a1.016 1.016 0 0 1-1.016-1.016V48.96c0-.561-.455-1.016-1.016-1.016h-9.257c-.561 0-1.016.455-1.016 1.016v.903c0 .561.455 1.016 1.016 1.016h6.096c.561 0 1.016.455 1.016 1.016v3.07c0 .562-.455 1.017-1.016 1.017h-6.096c-.561 0-1.016.455-1.016 1.016v.948c0 .561.455 1.016 1.016 1.016h9.257c.561 0 1.016-.455 1.016-1.016v-2.077c0-.561.455-1.016 1.016-1.016h2.98c.561 0 1.016.455 1.016 1.016v3.07c0 .561-.455 1.016-1.016 1.016h-2.077c-.561 0-1.016.455-1.016 1.016v2.032c0 .561-.455 1.016-1.016 1.016h-11.063a1.016 1.016 0 0 1-1.016-1.016m22.668 7.767V47.967c0-.562.455-1.016 1.016-1.016h2.032c.561 0 1.016-.455 1.016-1.016v-2.032c0-.562.455-1.016 1.016-1.016h11.063c.561 0 1.016.454 1.016 1.016v2.032c0 .56.455 1.016 1.016 1.016h2.077c.561 0 1.016.454 1.016 1.016v11.017c0 .562-.455 1.016-1.016 1.016h-2.077c-.561 0-1.016.455-1.016 1.016v1.987c0 .561-.455 1.016-1.016 1.016h-10.16c-.561 0-1.016.455-1.016 1.016v5.735c0 .561-.455 1.016-1.016 1.016h-2.935a1.016 1.016 0 0 1-1.016-1.016m5.983-11.808h9.257c.561 0 1.016-.455 1.016-1.016V48.96c0-.561-.455-1.016-1.016-1.016h-9.257c-.561 0-1.016.455-1.016 1.016v8.986c0 .561.455 1.016 1.016 1.016m24.813 4.041v-1.987c0-.56-.455-1.016-1.016-1.016h-2.032a1.016 1.016 0 0 1-1.016-1.016V47.967c0-.562.455-1.016 1.016-1.016h2.032c.561 0 1.016-.455 1.016-1.016v-2.032c0-.562.455-1.016 1.016-1.016h11.063c.561 0 1.016.454 1.016 1.016v2.032c0 .56.455 1.016 1.016 1.016h2.077c.562 0 1.016.454 1.016 1.016v11.017c0 .562-.454 1.016-1.016 1.016h-2.077c-.56 0-1.016.455-1.016 1.016v1.987c0 .561-.455 1.016-1.016 1.016h-11.063a1.016 1.016 0 0 1-1.016-1.016m1.92-4.041h9.256c.561 0 1.016-.455 1.016-1.016V48.96c0-.561-.455-1.016-1.016-1.016h-9.257c-.56 0-1.016.455-1.016 1.016v8.986c0 .561.455 1.016 1.016 1.016m24.812 4.041v-1.987c0-.56-.455-1.016-1.016-1.016h-2.032a1.016 1.016 0 0 1-1.016-1.016V47.967c0-.562.455-1.016 1.016-1.016h2.032c.561 0 1.016-.455 1.016-1.016v-2.032c0-.562.455-1.016 1.016-1.016h11.063c.561 0 1.016.454 1.016 1.016v2.032c0 .56.455 1.016 1.016 1.016h2.078c.56 0 1.016.454 1.016 1.016v2.98c0 .56-.455 1.016-1.016 1.016h-2.98a1.016 1.016 0 0 1-1.017-1.016V48.96c0-.561-.455-1.016-1.016-1.016h-9.257c-.56 0-1.016.455-1.016 1.016v8.986c0 .561.455 1.016 1.016 1.016h9.257c.561 0 1.016-.455 1.016-1.016v-2.032c0-.561.455-1.016 1.016-1.016h2.98c.562 0 1.017.455 1.017 1.016v3.07c0 .562-.455 1.016-1.016 1.016h-2.078c-.56 0-1.016.455-1.016 1.016v1.987c0 .561-.455 1.016-1.016 1.016h-11.063a1.016 1.016 0 0 1-1.016-1.016m21.765 0V35.91c0-.561.455-1.016 1.016-1.016h2.935c.561 0 1.016.455 1.016 1.016v10.025c0 .56.455 1.016 1.016 1.016h1.13c.56 0 1.015-.455 1.015-1.016v-2.032c0-.562.455-1.016 1.016-1.016h7c.56 0 1.015.454 1.015 1.016v2.032c0 .56.455 1.016 1.016 1.016h2.077c.562 0 1.016.454 1.016 1.016v15.036c0 .561-.454 1.016-1.016 1.016h-2.98a1.016 1.016 0 0 1-1.016-1.016V48.96c0-.561-.455-1.016-1.016-1.016h-5.238c-.56 0-1.016.455-1.016 1.016v1.987c0 .56-.455 1.016-1.016 1.016h-1.987c-.56 0-1.016.455-1.016 1.016v10.024c0 .561-.455 1.016-1.016 1.016h-2.935a1.016 1.016 0 0 1-1.016-1.016m43.96 0v-1.987c0-.56-.456-1.016-1.017-1.016h-2.032a1.016 1.016 0 0 1-1.016-1.016V47.967c0-.562.455-1.016 1.016-1.016h2.032c.561 0 1.016-.455 1.016-1.016v-2.032c0-.562.455-1.016 1.016-1.016h11.063c.561 0 1.016.454 1.016 1.016v2.032c0 .56.455 1.016 1.016 1.016h2.077c.562 0 1.016.454 1.016 1.016v2.98c0 .56-.454 1.016-1.016 1.016h-2.98a1.016 1.016 0 0 1-1.016-1.016V48.96c0-.561-.455-1.016-1.016-1.016h-9.257c-.56 0-1.016.455-1.016 1.016v.903c0 .561.455 1.016 1.016 1.016h6.096c.561 0 1.016.455 1.016 1.016v3.07c0 .562-.455 1.017-1.016 1.017h-6.096c-.56 0-1.016.455-1.016 1.016v.948c0 .561.455 1.016 1.016 1.016h9.257c.561 0 1.016-.455 1.016-1.016v-2.077c0-.561.455-1.016 1.016-1.016h2.98c.562 0 1.016.455 1.016 1.016v3.07c0 .561-.454 1.016-1.016 1.016h-2.077c-.56 0-1.016.455-1.016 1.016v2.032c0 .561-.455 1.016-1.016 1.016h-11.063a1.016 1.016 0 0 1-1.016-1.016M411.7 70.77V47.967c0-.562.455-1.016 1.016-1.016h2.032c.561 0 1.016-.455 1.016-1.016v-2.032c0-.562.455-1.016 1.016-1.016h11.063c.561 0 1.016.454 1.016 1.016v2.032c0 .56.455 1.016 1.016 1.016h2.078c.56 0 1.016.454 1.016 1.016v11.017c0 .562-.455 1.016-1.016 1.016h-2.078c-.56 0-1.016.455-1.016 1.016v1.987c0 .561-.455 1.016-1.016 1.016h-10.16c-.56 0-1.016.455-1.016 1.016v5.735c0 .561-.455 1.016-1.016 1.016h-2.935a1.016 1.016 0 0 1-1.016-1.016m5.983-11.808h9.257c.561 0 1.016-.455 1.016-1.016V48.96c0-.561-.455-1.016-1.016-1.016h-9.257c-.56 0-1.016.455-1.016 1.016v8.986c0 .561.455 1.016 1.016 1.016m24.813 4.041v-1.987c0-.56-.455-1.016-1.016-1.016h-2.032a1.016 1.016 0 0 1-1.016-1.016V47.967c0-.562.455-1.016 1.016-1.016h2.032c.561 0 1.016-.455 1.016-1.016v-2.032c0-.562.455-1.016 1.016-1.016h11.063c.562 0 1.016.454 1.016 1.016v2.032c0 .56.455 1.016 1.016 1.016h2.078c.56 0 1.016.454 1.016 1.016v11.017c0 .562-.455 1.016-1.016 1.016h-2.078c-.56 0-1.016.455-1.016 1.016v1.987c0 .561-.454 1.016-1.016 1.016h-11.063a1.016 1.016 0 0 1-1.016-1.016m1.92-4.041h9.256c.561 0 1.016-.455 1.016-1.016V48.96c0-.561-.455-1.016-1.016-1.016h-9.257c-.56 0-1.016.455-1.016 1.016v8.986c0 .561.455 1.016 1.016 1.016m24.812 4.041v-1.987c0-.56-.454-1.016-1.016-1.016h-2.032a1.016 1.016 0 0 1-1.016-1.016V47.967c0-.562.455-1.016 1.016-1.016h2.032c.562 0 1.016-.455 1.016-1.016v-2.032c0-.562.455-1.016 1.016-1.016h11.064c.56 0 1.016.454 1.016 1.016v2.032c0 .56.454 1.016 1.016 1.016h2.077c.56 0 1.016.454 1.016 1.016v2.98c0 .56-.455 1.016-1.016 1.016h-2.98a1.016 1.016 0 0 1-1.017-1.016V48.96c0-.561-.454-1.016-1.016-1.016h-9.256c-.562 0-1.016.455-1.016 1.016v8.986c0 .561.454 1.016 1.016 1.016h9.256c.562 0 1.016-.455 1.016-1.016v-2.032c0-.561.455-1.016 1.016-1.016h2.98c.562 0 1.017.455 1.017 1.016v3.07c0 .562-.455 1.016-1.016 1.016h-2.077c-.562 0-1.016.455-1.016 1.016v1.987c0 .561-.455 1.016-1.016 1.016h-11.064a1.016 1.016 0 0 1-1.016-1.016m21.765 0V35.91c0-.561.455-1.016 1.016-1.016h2.936c.56 0 1.016.455 1.016 1.016v10.025c0 .56.454 1.016 1.016 1.016h1.128c.562 0 1.016-.455 1.016-1.016v-2.032c0-.562.455-1.016 1.016-1.016h7c.56 0 1.016.454 1.016 1.016v2.032c0 .56.454 1.016 1.016 1.016h2.077c.56 0 1.016.454 1.016 1.016v15.036c0 .561-.455 1.016-1.016 1.016h-2.98a1.016 1.016 0 0 1-1.017-1.016V48.96c0-.561-.454-1.016-1.016-1.016h-5.238c-.56 0-1.016.455-1.016 1.016v1.987c0 .56-.454 1.016-1.016 1.016h-1.986c-.562 0-1.016.455-1.016 1.016v10.024c0 .561-.455 1.016-1.016 1.016h-2.936a1.016 1.016 0 0 1-1.016-1.016" aria-label="epoch" transform="translate(-68.874 -21.665)"/><animateTransform attributeName="transform" type="translate" from="0 0" to="-145.4 0" dur="5s" repeatCount="indefinite" calcMode="linear"/></g></g></svg>