<svg xmlns="http://www.w3.org/2000/svg" xmlns:xlink="http://www.w3.org/1999/xlink" width="1200" height="397.5" viewBox="120 0 320 94"><defs><clipPath id="a"><path d="M7 0h304v90H7z"/></clipPath><path id="b" fill="#fff" d="M97.2 63v-2q-.1-.9-1-1h-2a1 1 0 0 1-1-1V48q0-1 1-1h2q.9-.1 1-1v-2.1q0-1 1-1h11q1 0 1 1v2q.1 1 1.1 1h2q1 .1 1.1 1v3q-.1 1-1 1h-3a1 1 0 0 1-1-1v-2q-.1-.9-1-1H99a1 1 0 0 0-1 1v1q0 .9 1 1h6.1q1 0 1 1v3q0 1-1 1h-6A1 1 0 0 0 98 57v1q0 .9 1 1h9.3q.9-.1 1-1v-2.1q0-1 1-1h3q.9 0 1 1v3q-.1 1-1 1h-2.1a1 1 0 0 0-1 1V63q-.1 1-1 1h-11a1 1 0 0 1-1.1-1m22.7 7.8V48q0-1 1-1h2q1-.1 1-1v-2.1q.1-1 1-1H136q1 0 1 1v2q.1 1 1 1h2.1q1 .1 1 1v11q0 1-1 1.1h-2a1 1 0 0 0-1 1v2q-.1 1-1.1 1h-10.2a1 1 0 0 0-1 1v5.8q0 .9-1 1h-3a1 1 0 0 1-1-1m6-11.8h9.3q1-.1 1-1v-9q0-1-1-1h-9.3a1 1 0 0 0-1 1v9q.1.9 1 1m24.9 4v-2q-.1-.9-1-1h-2a1 1 0 0 1-1.1-1V48q0-1 1-1h2q1-.1 1-1v-2.1q.1-1 1-1h11.1q1 0 1 1v2q.1 1 1 1h2.1q1 .1 1 1v11q0 1-1 1.1h-2a1 1 0 0 0-1 1v2q-.1 1-1 1h-11.1a1 1 0 0 1-1-1m1.9-4h9.2q1-.1 1-1v-9q0-1-1-1h-9.2a1 1 0 0 0-1 1v9q0 .9 1 1m24.8 4v-2q-.1-.9-1-1h-2a1 1 0 0 1-1-1V48q0-1 1-1h2q.9-.1 1-1v-2.1q0-1 1-1h11q1 0 1 1v2q.1 1 1.1 1h2q1 .1 1 1v3q0 1-1 1h-2.9a1 1 0 0 1-1-1v-2q-.1-.9-1-1h-9.3a1 1 0 0 0-1 1v9q0 1 1 1h9.3q.9 0 1-1v-2q0-.9 1-1h3q.9.1 1 1v3q-.1 1-1 1.1h-2.1a1 1 0 0 0-1 1v2q-.1 1-1 1h-11a1 1 0 0 1-1.1-1m21.8 0V36q0-1 1-1.1h3q.9 0 1 1v10q0 1 1 1h1q1 0 1-1v-2q.1-1 1.1-1h7q1 0 1 1v2q.1 1 1 1h2.1q1 .1 1 1V63q0 1-1 1h-3a1 1 0 0 1-1-1V49q0-1-1-1h-5.2a1 1 0 0 0-1 1v2q-.1.9-1 1h-2a1 1 0 0 0-1 1v10q-.1 1-1 1h-3a1 1 0 0 1-1-1m44 0v-2q-.1-.9-1.1-1h-2a1 1 0 0 1-1-1V48q0-1 1-1h2q1-.1 1-1v-2.1q.1-1 1-1h11q1 0 1.1 1v2q.1 1 1 1h2.1q1 .1 1 1v3q0 1-1 1h-3a1 1 0 0 1-1-1v-2q0-.9-1-1H245a1 1 0 0 0-1 1v1q.1.9 1 1h6.1q1 0 1 1v3q0 1-1 1h-6a1 1 0 0 0-1 1.1v1q0 .9 1 1h9.2q1-.1 1-1v-2.1q.1-1 1-1h3q1 0 1 1v3q0 1-1 1h-2a1 1 0 0 0-1 1V63q-.1 1-1.1 1h-11a1 1 0 0 1-1-1m22.6 7.8V48q0-1 1-1h2q1-.1 1-1v-2.1q.1-1 1-1H282q1 0 1 1v2q.1 1 1 1h2.1q1 .1 1 1v11q0 1-1 1.1h-2a1 1 0 0 0-1 1v2q-.1 1-1 1h-10.2a1 1 0 0 0-1 1v5.8q-.1.9-1 1h-3a1 1 0 0 1-1-1m6-11.8h9.2q1-.1 1-1v-9q0-1-1-1h-9.2a1 1 0 0 0-1 1v9q0 .9 1 1m24.8 4v-2q-.1-.9-1-1h-2a1 1 0 0 1-1-1V48q0-1 1-1h2q.9-.1 1-1v-2.1q0-1 1-1h11q1 0 1 1v2q.1 1 1 1h2.2q.9.1 1 1v11q-.1 1-1 1.1h-2.1a1 1 0 0 0-1 1v2q-.1 1-1 1h-11.1a1 1 0 0 1-1-1m1.9-4h9.3q.9-.1 1-1v-9q-.1-1-1-1h-9.3a1 1 0 0 0-1 1v9q0 .9 1 1m24.8 4v-2q0-.9-1-1h-2a1 1 0 0 1-1-1V48q0-1 1-1h2q1-.1 1-1v-2.1q.1-1 1-1h11q1 0 1.1 1v2q.1 1 1 1h2.1q1 .1 1 1v3q0 1-1 1h-3a1 1 0 0 1-1-1v-2q-.1-.9-1-1h-9.3a1 1 0 0 0-1 1v9q.1 1 1 1h9.3q.9 0 1-1v-2q.1-.9 1-1h3q1 .1 1 1v3q0 1-1 1.1h-2a1 1 0 0 0-1.1 1v2q-.1 1-1 1h-11a1 1 0 0 1-1-1m21.7 0V36q0-1 1-1.1h3q.9 0 1 1v10q0 1 1 1h1q1 0 1.1-1v-2q.1-1 1-1h7q1 0 1 1v2q.1 1 1 1h2.1q1 .1 1 1V63q0 1-1 1h-3a1 1 0 0 1-1-1V49q0-1-1-1h-5.2a1 1 0 0 0-1 1v2q-.1.9-1 1h-2a1 1 0 0 0-1 1v10q-.1 1-1 1h-3a1 1 0 0 1-1-1m44 0v-2q-.1-.9-1-1H386a1 1 0 0 1-1-1V48q0-1 1-1h2q1-.1 1-1v-2.1q.1-1 1-1h11.1q1 0 1 1v2q.1 1 1 1h2.1q1 .1 1 1v3q0 1-1 1h-3a1 1 0 0 1-1-1v-2q0-.9-1-1H391a1 1 0 0 0-1 1v1q0 .9 1 1h6q1 0 1 1v3q0 1-1 1h-6a1 1 0 0 0-1 1.1v1q0 .9 1 1h9.2q1-.1 1-1v-2.1q.1-1 1-1h3q1 0 1 1v3q0 1-1 1h-2a1 1 0 0 0-1 1V63q-.1 1-1 1H390a1 1 0 0 1-1-1m22.7 7.8V48q.1-1 1-1h2q1-.1 1-1v-2.1q.1-1 1-1h11.1q1 0 1 1v2q.1 1 1 1h2.2q.9.1 1 1v11q-.1 1-1 1.1h-2.1a1 1 0 0 0-1 1v2q-.1 1-1 1h-10.2a1 1 0 0 0-1 1v5.8q-.1.9-1 1h-3a1 1 0 0 1-1-1m6-11.8h9.2q1-.1 1-1v-9q0-1-1-1h-9.2a1 1 0 0 0-1 1v9q0 .9 1 1m24.8 4v-2q-.1-.9-1-1h-2a1 1 0 0 1-1-1V48q0-1 1-1h2q.9-.1 1-1v-2.1q.1-1 1-1h11q1 0 1 1v2q.1 1 1.1 1h2q1 .1 1.1 1v11q-.1 1-1 1.1h-2a1 1 0 0 0-1.1 1v2q-.1 1-1 1h-11a1 1 0 0 1-1.1-1m2-4h9.2q.9-.1 1-1v-9q-.1-1-1-1h-9.3a1 1 0 0 0-1 1v9q.1.9 1 1m24.8 4v-2q0-.9-1-1h-2a1 1 0 0 1-1-1V48q0-1 1-1h2q1-.1 1-1v-2.1q.1-1 1-1h11.1q1 0 1 1v2q.1 1 1 1h2.1q1 .1 1 1v3q0 1-1 1h-3a1 1 0 0 1-1-1v-2q0-.9-1-1h-9.3a1 1 0 0 0-1 1v9q.1 1 1 1h9.3q1 0 1-1v-2q.1-.9 1-1h3q1 .1 1 1v3q0 1-1 1.1h-2a1 1 0 0 0-1 1v2q-.1 1-1 1h-11.2a1 1 0 0 1-1-1m21.8 0V36q0-1 1-1.1h3q.9 0 1 1v10q0 1 1 1h1.1q1 0 1-1v-2q.1-1 1-1h7q1 0 1 1v2q.1 1 1 1h2.1q1 .1 1 1V63q0 1-1 1h-3a1 1 0 0 1-1-1V49q0-1-1-1H501a1 1 0 0 0-1 1v2q-.1.9-1 1h-2a1 1 0 0 0-1 1v10q-.1 1-1 1h-3a1 1 0 0 1-1-1"/></defs><path fill="#58bf89" d="M133.7 0h293.6a5.3 5.3 0 0 1 5.3 5.2v82.2a5 5 90 0 1-5.3 5.2H133.7a5.3 5.3 0 0 1-5.4-5.2V5.2a5 5 90 0 1 5.4-5.2"/><g clip-path="url(#a)" transform="translate(121.4 -6.6)"><g><use xlink:href="#b" aria-label="epoch" font-family="Pixelify Sans" font-size="70.6" font-weight="500" letter-spacing="0" style="-inkscape-font-specification:&quot;Pixelify Sans Medium&quot;" transform="translate(-214.8 22)" word-spacing="-3.4"/><animateTransform attributeName="transform" calcMode="linear" dur="5s" from="0 0" repeatCount="indefinite" to="145.4 0" type="translate"/></g><g><use xlink:href="#b" aria-label="epoch" font-family="Pixelify Sans" font-size="70.6" font-weight="500" letter-spacing="0" style="-inkscape-font-specification:&quot;Pixelify Sans Medium&quot;" transform="translate(-68.9 -21.7)" word-spacing="-3.4"/><animateTransform attributeName="transform" calcMode="linear" dur="5s" from="0 0" repeatCount="indefinite" to="-145.4 0" type="translate"/></g></g></svg>